<svg width="265" height="157" viewBox="0 0 265 157" fill="none" xmlns="http://www.w3.org/2000/svg">
<path d="M10.5978 157C7.06522 157 4.40666 155.998 2.62214 153.994C0.874048 151.989 0 148.819 0 144.482V118.299H4.91652V144.045C4.91652 146.924 5.33533 149.092 6.17296 150.55C7.01059 151.971 8.52197 152.682 10.7071 152.682C12.965 152.682 14.4946 151.953 15.2958 150.495C16.1335 149.001 16.5523 146.851 16.5523 144.045V118.299H21.4688V144.482C21.4688 148.746 20.5583 151.898 18.7374 153.939C16.9165 155.98 14.2033 157 10.5978 157Z" fill="#0077B6"/>
<path d="M29.9814 128.302C31.3289 127.901 32.7856 127.573 34.3516 127.318C35.9176 127.026 37.3562 126.881 38.6672 126.881C40.0876 126.881 41.3804 127.081 42.5458 127.482C43.7112 127.846 44.6945 128.484 45.4957 129.395C46.3334 130.306 46.9707 131.545 47.4077 133.112C47.8812 134.643 48.1179 136.556 48.1179 138.852V156.18H43.4199V139.235C43.4199 136.392 43.0557 134.315 42.3273 133.003C41.5989 131.691 40.2332 131.035 38.2302 131.035C37.1741 131.035 35.9905 131.217 34.6794 131.582V156.18H29.9814V128.302Z" fill="#0077B6"/>
<path d="M61.0331 156.18H56.3351V127.482H61.0331V156.18ZM58.6841 122.398C57.8465 122.398 57.1181 122.125 56.499 121.578C55.9163 120.995 55.625 120.23 55.625 119.283C55.625 118.335 55.9163 117.588 56.499 117.041C57.1181 116.458 57.8465 116.167 58.6841 116.167C59.5218 116.167 60.2319 116.458 60.8146 117.041C61.4337 117.588 61.7433 118.335 61.7433 119.283C61.7433 120.23 61.4337 120.995 60.8146 121.578C60.2319 122.125 59.5218 122.398 58.6841 122.398Z" fill="#0077B6"/>
<path d="M76.23 150.659C76.667 149.201 77.1222 147.489 77.5957 145.521C78.1055 143.553 78.5972 141.53 79.0706 139.453C79.5441 137.34 79.9811 135.244 80.3817 133.167C80.8187 131.09 81.1829 129.195 81.4742 127.482H86.1722C85.6988 129.887 85.1343 132.42 84.4788 135.08C83.8597 137.74 83.2041 140.364 82.5122 142.952C81.8566 145.503 81.1829 147.926 80.4909 150.222C79.799 152.518 79.1617 154.504 78.579 156.18H73.7171C73.1344 154.504 72.497 152.518 71.8051 150.222C71.1131 147.926 70.4212 145.503 69.7292 142.952C69.0737 140.364 68.4182 137.74 67.7626 135.08C67.1435 132.42 66.5972 129.887 66.1238 127.482H71.0949C71.3863 129.195 71.7322 131.09 72.1329 133.167C72.5699 135.244 73.0069 137.34 73.4439 139.453C73.9174 141.53 74.3908 143.553 74.8643 145.521C75.3377 147.489 75.7929 149.201 76.23 150.659Z" fill="#0077B6"/>
<path d="M93.9674 143.225C94.0038 144.61 94.1313 145.885 94.3498 147.051C94.5683 148.181 94.9143 149.183 95.3877 150.058C95.8976 150.896 96.5531 151.552 97.3543 152.026C98.192 152.499 99.2481 152.736 100.523 152.736C101.579 152.736 102.544 152.591 103.418 152.299C104.329 151.971 104.984 151.698 105.385 151.479L106.259 155.251C105.785 155.579 104.984 155.925 103.855 156.289C102.763 156.69 101.451 156.891 99.9219 156.891C97.9188 156.891 96.2254 156.526 94.8415 155.797C93.494 155.069 92.3832 154.048 91.5091 152.736C90.6715 151.424 90.0706 149.857 89.7064 148.035C89.3422 146.213 89.1601 144.209 89.1601 142.022C89.1601 136.738 90.0342 132.875 91.7823 130.434C93.5304 127.992 95.843 126.771 98.72 126.771C101.961 126.771 104.256 127.992 105.603 130.434C106.951 132.875 107.624 136.301 107.624 140.71C107.624 141.111 107.624 141.53 107.624 141.968C107.624 142.369 107.606 142.788 107.57 143.225H93.9674ZM98.72 130.762C97.154 130.762 96.0069 131.545 95.2785 133.112C94.5865 134.679 94.1677 136.775 94.022 139.399H102.708C102.708 136.738 102.435 134.643 101.888 133.112C101.342 131.545 100.286 130.762 98.72 130.762Z" fill="#0077B6"/>
<path d="M126.938 131.746C125.773 131.236 124.461 130.98 123.005 130.98C121.657 130.98 120.401 131.217 119.235 131.691V156.18H114.537V128.739C115.594 128.229 116.795 127.81 118.143 127.482C119.527 127.118 121.038 126.935 122.677 126.935C123.551 126.935 124.425 126.99 125.299 127.099C126.173 127.209 126.993 127.409 127.757 127.701L126.938 131.746Z" fill="#0077B6"/>
<path d="M136.45 152.846C137.834 152.846 138.872 152.463 139.564 151.698C140.292 150.896 140.656 149.857 140.656 148.582C140.656 147.78 140.511 147.106 140.219 146.559C139.928 145.976 139.546 145.466 139.072 145.029C138.599 144.592 138.052 144.209 137.433 143.881C136.814 143.516 136.195 143.134 135.576 142.733C134.957 142.369 134.356 141.949 133.773 141.476C133.191 140.966 132.663 140.401 132.189 139.781C131.752 139.125 131.388 138.396 131.097 137.595C130.842 136.756 130.714 135.791 130.714 134.697C130.714 132.329 131.442 130.416 132.899 128.958C134.392 127.5 136.395 126.771 138.908 126.771C139.964 126.771 140.966 126.917 141.913 127.209C142.86 127.464 143.643 127.755 144.262 128.083L143.224 131.855C142.568 131.491 141.913 131.217 141.257 131.035C140.602 130.853 139.892 130.762 139.127 130.762C137.961 130.762 137.033 131.108 136.341 131.8C135.649 132.456 135.303 133.422 135.303 134.697C135.303 135.426 135.43 136.064 135.685 136.611C135.94 137.121 136.268 137.595 136.669 138.032C137.106 138.433 137.579 138.815 138.089 139.18C138.635 139.544 139.2 139.89 139.782 140.218C140.474 140.619 141.148 141.057 141.804 141.53C142.496 142.004 143.096 142.569 143.606 143.225C144.153 143.844 144.59 144.591 144.917 145.466C145.245 146.304 145.409 147.325 145.409 148.527C145.409 151.042 144.662 153.064 143.169 154.595C141.713 156.125 139.564 156.891 136.723 156.891C135.266 156.891 133.955 156.69 132.79 156.289C131.625 155.889 130.751 155.524 130.168 155.196L131.151 151.315C131.697 151.607 132.426 151.935 133.336 152.299C134.283 152.663 135.321 152.846 136.45 152.846Z" fill="#0077B6"/>
<path d="M155.779 156.18H151.081V127.482H155.779V156.18ZM153.43 122.398C152.592 122.398 151.864 122.125 151.244 121.578C150.662 120.995 150.37 120.23 150.37 119.283C150.37 118.335 150.662 117.588 151.244 117.041C151.864 116.458 152.592 116.167 153.43 116.167C154.267 116.167 154.977 116.458 155.56 117.041C156.179 117.588 156.489 118.335 156.489 119.283C156.489 120.23 156.179 120.995 155.56 121.578C154.977 122.125 154.267 122.398 153.43 122.398Z" fill="#0077B6"/>
<path d="M188.511 137.212C188.511 140.747 188.129 143.753 187.364 146.231C186.635 148.673 185.561 150.659 184.141 152.19C182.757 153.72 181.063 154.832 179.06 155.524C177.094 156.217 174.89 156.563 172.45 156.563C169.974 156.563 167.352 156.235 164.584 155.579V118.845C165.968 118.554 167.315 118.317 168.626 118.135C169.937 117.952 171.194 117.861 172.396 117.861C174.872 117.861 177.094 118.207 179.06 118.9C181.063 119.592 182.757 120.704 184.141 122.234C185.561 123.765 186.635 125.769 187.364 128.247C188.129 130.689 188.511 133.677 188.511 137.212ZM183.267 137.212C183.267 134.515 183.066 132.219 182.666 130.324C182.265 128.429 181.646 126.881 180.808 125.678C179.971 124.476 178.86 123.601 177.476 123.054C176.129 122.508 174.508 122.234 172.614 122.234C172.104 122.234 171.594 122.253 171.085 122.289C170.575 122.325 170.047 122.38 169.5 122.453V151.971C170.047 152.044 170.575 152.099 171.085 152.135C171.594 152.171 172.086 152.19 172.56 152.19C174.49 152.19 176.129 151.916 177.476 151.37C178.824 150.823 179.916 149.967 180.754 148.801C181.628 147.598 182.265 146.049 182.666 144.154C183.066 142.259 183.267 139.945 183.267 137.212Z" fill="#0077B6"/>
<path d="M208.186 131.746C207.021 131.236 205.71 130.98 204.253 130.98C202.906 130.98 201.649 131.217 200.484 131.691V156.18H195.786V128.739C196.842 128.229 198.044 127.81 199.391 127.482C200.775 127.118 202.287 126.935 203.925 126.935C204.799 126.935 205.674 126.99 206.548 127.099C207.422 127.209 208.241 127.409 209.006 127.701L208.186 131.746Z" fill="#0077B6"/>
<path d="M218.409 156.18H213.711V127.482H218.409V156.18ZM216.06 122.398C215.222 122.398 214.494 122.125 213.875 121.578C213.292 120.995 213.001 120.23 213.001 119.283C213.001 118.335 213.292 117.588 213.875 117.041C214.494 116.458 215.222 116.167 216.06 116.167C216.897 116.167 217.607 116.458 218.19 117.041C218.809 117.588 219.119 118.335 219.119 119.283C219.119 120.23 218.809 120.995 218.19 121.578C217.607 122.125 216.897 122.398 216.06 122.398Z" fill="#0077B6"/>
<path d="M233.606 150.659C234.043 149.201 234.498 147.489 234.971 145.521C235.481 143.553 235.973 141.53 236.446 139.453C236.92 137.34 237.357 135.244 237.757 133.167C238.194 131.09 238.558 129.195 238.85 127.482H243.548C243.074 129.887 242.51 132.42 241.854 135.08C241.235 137.74 240.58 140.364 239.888 142.952C239.232 145.503 238.558 147.926 237.867 150.222C237.175 152.518 236.537 154.504 235.955 156.18H231.093C230.51 154.504 229.873 152.518 229.181 150.222C228.489 147.926 227.797 145.503 227.105 142.952C226.449 140.364 225.794 137.74 225.138 135.08C224.519 132.42 223.973 129.887 223.499 127.482H228.47C228.762 129.195 229.108 131.09 229.508 133.167C229.945 135.244 230.382 137.34 230.82 139.453C231.293 141.53 231.766 143.553 232.24 145.521C232.713 147.489 233.169 149.201 233.606 150.659Z" fill="#0077B6"/>
<path d="M251.343 143.225C251.379 144.61 251.507 145.885 251.725 147.051C251.944 148.181 252.29 149.183 252.763 150.058C253.273 150.896 253.929 151.552 254.73 152.026C255.568 152.499 256.624 152.736 257.898 152.736C258.954 152.736 259.92 152.591 260.794 152.299C261.704 151.971 262.36 151.698 262.76 151.479L263.634 155.251C263.161 155.579 262.36 155.925 261.231 156.289C260.138 156.69 258.827 156.891 257.297 156.891C255.294 156.891 253.601 156.526 252.217 155.797C250.87 155.069 249.759 154.048 248.885 152.736C248.047 151.424 247.446 149.857 247.082 148.035C246.718 146.213 246.536 144.209 246.536 142.022C246.536 136.738 247.41 132.875 249.158 130.434C250.906 127.992 253.219 126.771 256.096 126.771C259.337 126.771 261.631 127.992 262.979 130.434C264.326 132.875 265 136.301 265 140.71C265 141.111 265 141.53 265 141.968C265 142.369 264.982 142.788 264.945 143.225H251.343ZM256.096 130.762C254.53 130.762 253.382 131.545 252.654 133.112C251.962 134.679 251.543 136.775 251.398 139.399H260.083C260.083 136.738 259.81 134.643 259.264 133.112C258.718 131.545 257.662 130.762 256.096 130.762Z" fill="#0077B6"/>
<path d="M202.545 101.029C202.545 102.219 202.111 103.248 201.242 104.117C200.373 104.987 199.344 105.422 198.155 105.422C196.966 105.422 195.938 104.987 195.069 104.117C194.2 103.248 193.766 102.219 193.766 101.029V43.2393L145.341 67.5357C141.683 69.3659 137.339 70.281 132.309 70.281C127.279 70.281 122.935 69.3659 119.277 67.5357L67.423 41.5921C63.8563 39.7619 62.073 37.5885 62.073 35.0719C62.073 32.5553 63.8563 30.4277 67.423 28.6889L119.277 2.74535C122.935 0.915118 127.279 0 132.309 0C137.339 0 141.683 0.915118 145.341 2.74535L197.195 28.6889C200.304 30.2446 202.042 32.1664 202.408 34.4542C202.499 34.5457 202.545 34.7287 202.545 35.0032V101.029ZM149.731 76.3208L176.207 63.0058V82.3606C176.207 86.2956 171.931 89.6586 163.38 92.4497C154.829 95.2409 144.472 96.6364 132.309 96.6364C120.146 96.6364 109.789 95.2409 101.238 92.4497C92.6869 89.6586 88.4115 86.2956 88.4115 82.3606V63.0058L114.887 76.3208C118.545 78.151 124.353 79.0662 132.309 79.0662C140.265 79.0662 146.073 78.151 149.731 76.3208Z" fill="#0077B6"/>
</svg>
